<svg xmlns="http://www.w3.org/2000/svg" xmlns:xlink="http://www.w3.org/1999/xlink" viewBox="189 145 64 41" width="64" height="41" preserveAspectRatio="xMidYMid meet" version="1.0">
  <defs>
    <g/>
    <clipPath id="6d2d7f06ad">
      <path d="M 189 145.351562 L 253 145.351562 L 253 186 L 189 186 Z M 189 145.351562" clip-rule="nonzero"/>
    </clipPath>
    <clipPath id="b32c3b59b1">
      <path d="M 187.5 183 L 199 183 L 199 202 L 187.5 202 Z M 187.5 183" clip-rule="nonzero"/>
    </clipPath>
    <clipPath id="288960d45c">
      <path d="M 192 181 L 204 181 L 204 203.851562 L 192 203.851562 Z M 192 181" clip-rule="nonzero"/>
    </clipPath>
    <clipPath id="cf00a69606">
      <path d="M 243 183 L 254.25 183 L 254.25 202 L 243 202 Z M 243 183" clip-rule="nonzero"/>
    </clipPath>
    <clipPath id="b25a3624df">
      <path d="M 237 181 L 250 181 L 250 203.851562 L 237 203.851562 Z M 237 181" clip-rule="nonzero"/>
    </clipPath>
  </defs>
  <g clip-path="url(#6d2d7f06ad)">
    <path fill="#2a9d8f" d="M 220.839844 145.371094 C 203.285156 145.371094 189.054688 159.601562 189.054688 177.15625 C 189.066406 179.925781 189.027344 185.351562 189.027344 185.351562 L 192.28125 185.351562 C 192.28125 185.351562 192.207031 179.933594 192.199219 177.15625 C 192.199219 161.339844 205.023438 148.515625 220.835938 148.515625 C 236.652344 148.515625 249.476562 161.339844 249.476562 177.15625 C 249.472656 179.929688 249.40625 185.351562 249.40625 185.351562 L 252.671875 185.351562 C 252.671875 185.351562 252.617188 179.921875 252.621094 177.15625 C 252.621094 159.601562 238.390625 145.371094 220.835938 145.371094 Z M 220.839844 145.371094" fill-opacity="1" fill-rule="evenodd"/>
  </g>
  <g clip-path="url(#b32c3b59b1)">
    <path fill="#e9c46a" d="M 192.996094 183.640625 C 193.355469 183.640625 193.710938 183.675781 194.066406 183.746094 C 194.417969 183.816406 194.761719 183.921875 195.097656 184.058594 C 195.429688 184.199219 195.746094 184.367188 196.046875 184.566406 C 196.347656 184.769531 196.625 184.996094 196.878906 185.25 C 197.132812 185.507812 197.363281 185.785156 197.5625 186.082031 C 197.761719 186.382812 197.933594 186.699219 198.070312 187.035156 C 198.207031 187.367188 198.3125 187.710938 198.382812 188.0625 C 198.453125 188.417969 198.488281 188.777344 198.488281 189.136719 L 198.488281 195.628906 C 198.488281 195.988281 198.453125 196.347656 198.382812 196.699219 C 198.3125 197.054688 198.207031 197.398438 198.070312 197.730469 C 197.933594 198.066406 197.761719 198.382812 197.5625 198.679688 C 197.363281 198.980469 197.132812 199.257812 196.878906 199.515625 C 196.625 199.769531 196.347656 199.996094 196.046875 200.195312 C 195.746094 200.398438 195.429688 200.566406 195.097656 200.703125 C 194.761719 200.84375 194.417969 200.945312 194.066406 201.015625 C 193.710938 201.085938 193.355469 201.121094 192.996094 201.121094 C 192.632812 201.121094 192.277344 201.085938 191.921875 201.015625 C 191.570312 200.945312 191.226562 200.84375 190.890625 200.703125 C 190.558594 200.566406 190.242188 200.398438 189.941406 200.195312 C 189.640625 199.996094 189.363281 199.769531 189.109375 199.515625 C 188.855469 199.257812 188.625 198.980469 188.425781 198.679688 C 188.226562 198.382812 188.054688 198.066406 187.917969 197.730469 C 187.78125 197.398438 187.675781 197.054688 187.605469 196.699219 C 187.535156 196.347656 187.5 195.988281 187.5 195.628906 L 187.5 189.136719 C 187.5 188.777344 187.535156 188.417969 187.605469 188.0625 C 187.675781 187.710938 187.78125 187.367188 187.917969 187.035156 C 188.054688 186.699219 188.226562 186.382812 188.425781 186.082031 C 188.625 185.785156 188.855469 185.507812 189.109375 185.25 C 189.363281 184.996094 189.640625 184.769531 189.941406 184.566406 C 190.242188 184.367188 190.558594 184.199219 190.890625 184.058594 C 191.226562 183.921875 191.570312 183.816406 191.921875 183.746094 C 192.277344 183.675781 192.632812 183.640625 192.996094 183.640625 Z M 192.996094 183.640625" fill-opacity="1" fill-rule="evenodd"/>
  </g>
  <g clip-path="url(#288960d45c)">
    <path fill="#2a9d8f" d="M 194.742188 181.144531 L 201.484375 181.144531 C 201.78125 181.144531 202.070312 181.203125 202.34375 181.316406 C 202.617188 181.433594 202.875 181.601562 203.101562 181.820312 C 203.328125 182.042969 203.523438 182.316406 203.679688 182.628906 C 203.832031 182.941406 203.949219 183.300781 204.023438 183.6875 C 204.097656 184.078125 204.136719 184.507812 204.136719 184.964844 C 204.136719 185.421875 204.097656 185.851562 204.023438 186.242188 C 203.949219 186.628906 203.832031 186.984375 203.679688 187.296875 C 203.523438 187.609375 203.328125 187.878906 203.101562 188.101562 C 202.875 188.324219 202.617188 188.488281 202.34375 188.601562 C 202.070312 188.71875 201.78125 188.777344 201.484375 188.777344 L 194.742188 188.777344 C 194.445312 188.777344 194.15625 188.71875 193.882812 188.601562 C 193.609375 188.488281 193.351562 188.324219 193.125 188.101562 C 192.898438 187.878906 192.703125 187.609375 192.550781 187.296875 C 192.398438 186.984375 192.28125 186.628906 192.207031 186.242188 C 192.132812 185.851562 192.09375 185.421875 192.09375 184.964844 C 192.09375 184.507812 192.132812 184.078125 192.207031 183.6875 C 192.28125 183.300781 192.398438 182.941406 192.550781 182.628906 C 192.703125 182.316406 192.898438 182.042969 193.125 181.820312 C 193.351562 181.601562 193.609375 181.433594 193.882812 181.316406 C 194.15625 181.203125 194.445312 181.144531 194.742188 181.144531 Z M 194.742188 181.144531" fill-opacity="1" fill-rule="evenodd"/>
  </g>
  <g clip-path="url(#cf00a69606)">
    <path fill="#e9c46a" d="M 243.996094 183.640625 C 244.355469 183.640625 244.710938 183.675781 245.066406 183.746094 C 245.417969 183.816406 245.761719 183.921875 246.097656 184.058594 C 246.429688 184.199219 246.746094 184.367188 247.046875 184.566406 C 247.347656 184.769531 247.625 184.996094 247.878906 185.25 C 248.132812 185.507812 248.363281 185.785156 248.5625 186.082031 C 248.761719 186.382812 248.933594 186.699219 249.070312 187.035156 C 249.207031 187.367188 249.3125 187.710938 249.382812 188.0625 C 249.453125 188.417969 249.488281 188.777344 249.488281 189.136719 L 249.488281 195.628906 C 249.488281 195.988281 249.453125 196.347656 249.382812 196.699219 C 249.3125 197.054688 249.207031 197.398438 249.070312 197.730469 C 248.933594 198.066406 248.761719 198.382812 248.5625 198.679688 C 248.363281 198.980469 248.132812 199.257812 247.878906 199.515625 C 247.625 199.769531 247.347656 199.996094 247.046875 200.195312 C 246.746094 200.398438 246.429688 200.566406 246.097656 200.703125 C 245.761719 200.84375 245.417969 200.945312 245.066406 201.015625 C 244.710938 201.085938 244.355469 201.121094 243.996094 201.121094 C 243.632812 201.121094 243.277344 201.085938 242.921875 201.015625 C 242.570312 200.945312 242.226562 200.84375 241.890625 200.703125 C 241.558594 200.566406 241.242188 200.398438 240.941406 200.195312 C 240.640625 199.996094 240.363281 199.769531 240.109375 199.515625 C 239.855469 199.257812 239.625 198.980469 239.425781 198.679688 C 239.226562 198.382812 239.054688 198.066406 238.917969 197.730469 C 238.78125 197.398438 238.675781 197.054688 238.605469 196.699219 C 238.535156 196.347656 238.5 195.988281 238.5 195.628906 L 238.5 189.136719 C 238.5 188.777344 238.535156 188.417969 238.605469 188.0625 C 238.675781 187.710938 238.78125 187.367188 238.917969 187.035156 C 239.054688 186.699219 239.226562 186.382812 239.425781 186.082031 C 239.625 185.785156 239.855469 185.507812 240.109375 185.25 C 240.363281 184.996094 240.640625 184.769531 240.941406 184.566406 C 241.242188 184.367188 241.558594 184.199219 241.890625 184.058594 C 242.226562 183.921875 242.570312 183.816406 242.921875 183.746094 C 243.277344 183.675781 243.632812 183.640625 243.996094 183.640625 Z M 243.996094 183.640625" fill-opacity="1" fill-rule="evenodd"/>
  </g>
  <g clip-path="url(#b25a3624df)">
    <path fill="#2a9d8f" d="M 245.742188 181.144531 L 252.484375 181.144531 C 252.78125 181.144531 253.070312 181.203125 253.34375 181.316406 C 253.617188 181.433594 253.875 181.601562 254.101562 181.820312 C 254.328125 182.042969 254.523438 182.316406 254.679688 182.628906 C 254.832031 182.941406 254.949219 183.300781 255.023438 183.6875 C 255.097656 184.078125 255.136719 184.507812 255.136719 184.964844 C 255.136719 185.421875 255.097656 185.851562 255.023438 186.242188 C 254.949219 186.628906 254.832031 186.984375 254.679688 187.296875 C 254.523438 187.609375 254.328125 187.878906 254.101562 188.101562 C 253.875 188.324219 253.617188 188.488281 253.34375 188.601562 C 253.070312 188.71875 252.78125 188.777344 252.484375 188.777344 L 245.742188 188.777344 C 245.445312 188.777344 245.15625 188.71875 244.882812 188.601562 C 244.609375 188.488281 244.351562 188.324219 244.125 188.101562 C 243.898438 187.878906 243.703125 187.609375 243.550781 187.296875 C 243.398438 186.984375 243.28125 186.628906 243.207031 186.242188 C 243.132812 185.851562 243.09375 185.421875 243.09375 184.964844 C 243.09375 184.507812 243.132812 184.078125 243.207031 183.6875 C 243.28125 183.300781 243.398438 182.941406 243.550781 182.628906 C 243.703125 182.316406 243.898438 182.042969 244.125 181.820312 C 244.351562 181.601562 244.609375 181.433594 244.882812 181.316406 C 245.15625 181.203125 245.445312 181.144531 245.742188 181.144531 Z M 245.742188 181.144531" fill-opacity="1" fill-rule="evenodd"/>
  </g>
</svg>