<svg width="231" height="47" viewBox="0 0 231 47" fill="none" xmlns="http://www.w3.org/2000/svg">
<mask id="mask0_20_932" style="mask-type:luminance" maskUnits="userSpaceOnUse" x="140" y="0" width="52" height="33">
<path d="M140.046 0H191.246V32.5187H140.046V0Z" fill="white"/>
</mask>
<g mask="url(#mask0_20_932)">
<path fill-rule="evenodd" clip-rule="evenodd" d="M165.518 0.015625C151.475 0.015625 140.09 11.4 140.09 25.4438C140.1 27.6594 140.068 32 140.068 32H142.671C142.671 32 142.612 27.6656 142.606 25.4438C142.606 12.7906 152.865 2.53125 165.515 2.53125C178.168 2.53125 188.428 12.7906 188.428 25.4438C188.425 27.6625 188.371 32 188.371 32H190.984C190.984 32 190.94 27.6563 190.943 25.4438C190.943 11.4 179.559 0.015625 165.515 0.015625H165.518Z" fill="#2A9D8F"/>
</g>
<mask id="mask1_20_932" style="mask-type:luminance" maskUnits="userSpaceOnUse" x="138" y="30" width="11" height="16">
<path d="M138.846 30.1187H148.046V45.3187H138.846V30.1187Z" fill="white"/>
</mask>
<g mask="url(#mask1_20_932)">
<path fill-rule="evenodd" clip-rule="evenodd" d="M143.243 30.6311C143.531 30.6311 143.815 30.6592 144.099 30.7155C144.381 30.7717 144.656 30.8561 144.924 30.9655C145.19 31.078 145.443 31.2124 145.684 31.3717C145.924 31.5342 146.146 31.7155 146.349 31.9186C146.552 32.1249 146.737 32.3467 146.896 32.5842C147.056 32.8249 147.193 33.078 147.302 33.3467C147.412 33.6124 147.496 33.8874 147.552 34.1686C147.609 34.453 147.637 34.7405 147.637 35.028V40.2217C147.637 40.5092 147.609 40.7967 147.552 41.078C147.496 41.3624 147.412 41.6374 147.302 41.903C147.193 42.1717 147.056 42.4249 146.896 42.6624C146.737 42.903 146.552 43.1249 146.349 43.3311C146.146 43.5342 145.924 43.7155 145.684 43.8749C145.443 44.0374 145.19 44.1717 144.924 44.2811C144.656 44.3936 144.381 44.4749 144.099 44.5311C143.815 44.5874 143.531 44.6155 143.243 44.6155C142.952 44.6155 142.668 44.5874 142.384 44.5311C142.102 44.4749 141.827 44.3936 141.559 44.2811C141.293 44.1717 141.04 44.0374 140.799 43.8749C140.559 43.7155 140.337 43.5342 140.134 43.3311C139.931 43.1249 139.746 42.903 139.587 42.6624C139.427 42.4249 139.29 42.1717 139.181 41.903C139.071 41.6374 138.987 41.3624 138.931 41.078C138.874 40.7967 138.846 40.5092 138.846 40.2217V35.028C138.846 34.7405 138.874 34.453 138.931 34.1686C138.987 33.8874 139.071 33.6124 139.181 33.3467C139.29 33.078 139.427 32.8249 139.587 32.5842C139.746 32.3467 139.931 32.1249 140.134 31.9186C140.337 31.7155 140.559 31.5342 140.799 31.3717C141.04 31.2124 141.293 31.078 141.559 30.9655C141.827 30.8561 142.102 30.7717 142.384 30.7155C142.668 30.6592 142.952 30.6311 143.243 30.6311Z" fill="#E9C46A"/>
</g>
<mask id="mask2_20_932" style="mask-type:luminance" maskUnits="userSpaceOnUse" x="142" y="28" width="11" height="19">
<path d="M142.446 28.5188H152.046V46.8H142.446V28.5188Z" fill="white"/>
</mask>
<g mask="url(#mask2_20_932)">
<path fill-rule="evenodd" clip-rule="evenodd" d="M144.64 28.6345H150.034C150.271 28.6345 150.503 28.6814 150.721 28.772C150.943 28.8626 151.137 28.9939 151.306 29.1626C151.475 29.3314 151.603 29.5251 151.696 29.747C151.787 29.9658 151.831 30.1939 151.831 30.4345V44.8189C151.831 45.0564 151.787 45.2845 151.696 45.5064C151.603 45.7251 151.475 45.922 151.306 46.0876C151.137 46.2564 150.943 46.3876 150.721 46.4783C150.503 46.5689 150.271 46.6158 150.034 46.6158H144.64C144.403 46.6158 144.171 46.5689 143.953 46.4783C143.731 46.3876 143.537 46.2564 143.368 46.0876C143.2 45.922 143.071 45.7251 142.978 45.5064C142.887 45.2845 142.843 45.0564 142.843 44.8189V30.4345C142.843 30.1939 142.887 29.9658 142.978 29.747C143.071 29.5251 143.2 29.3314 143.368 29.1626C143.537 28.9939 143.731 28.8626 143.953 28.772C144.171 28.6814 144.403 28.6345 144.64 28.6345Z" fill="#2A9D8F"/>
</g>
<mask id="mask3_20_932" style="mask-type:luminance" maskUnits="userSpaceOnUse" x="183" y="30" width="10" height="16">
<path d="M183.246 30.1187H192.246V45.3187H183.246V30.1187Z" fill="white"/>
</mask>
<g mask="url(#mask3_20_932)">
<path fill-rule="evenodd" clip-rule="evenodd" d="M187.793 30.6311C187.506 30.6311 187.218 30.6592 186.937 30.7155C186.653 30.7717 186.378 30.8561 186.112 30.9655C185.843 31.078 185.59 31.2124 185.353 31.3717C185.112 31.5342 184.89 31.7155 184.687 31.9186C184.481 32.1249 184.299 32.3467 184.14 32.5842C183.978 32.8249 183.843 33.078 183.734 33.3467C183.621 33.6124 183.54 33.8874 183.484 34.1686C183.428 34.453 183.399 34.7405 183.399 35.028V40.2217C183.399 40.5092 183.428 40.7967 183.484 41.078C183.54 41.3624 183.621 41.6374 183.734 41.903C183.843 42.1717 183.978 42.4249 184.14 42.6624C184.299 42.903 184.481 43.1249 184.687 43.3311C184.89 43.5342 185.112 43.7155 185.353 43.8749C185.59 44.0374 185.843 44.1717 186.112 44.2811C186.378 44.3936 186.653 44.4749 186.937 44.5311C187.218 44.5874 187.506 44.6155 187.793 44.6155C188.081 44.6155 188.368 44.5874 188.649 44.5311C188.934 44.4749 189.209 44.3936 189.474 44.2811C189.743 44.1717 189.996 44.0374 190.234 43.8749C190.474 43.7155 190.696 43.5342 190.903 43.3311C191.106 43.1249 191.287 42.903 191.446 42.6624C191.609 42.4249 191.743 42.1717 191.853 41.903C191.965 41.6374 192.046 41.3624 192.103 41.078C192.159 40.7967 192.187 40.5092 192.187 40.2217V35.028C192.187 34.7405 192.159 34.453 192.103 34.1686C192.046 33.8874 191.965 33.6124 191.853 33.3467C191.743 33.078 191.609 32.8249 191.446 32.5842C191.287 32.3467 191.106 32.1249 190.903 31.9186C190.696 31.7155 190.474 31.5342 190.234 31.3717C189.996 31.2124 189.743 31.078 189.474 30.9655C189.209 30.8561 188.934 30.7717 188.649 30.7155C188.368 30.6592 188.081 30.6311 187.793 30.6311Z" fill="#E9C46A"/>
</g>
<mask id="mask4_20_932" style="mask-type:luminance" maskUnits="userSpaceOnUse" x="178" y="28" width="11" height="19">
<path d="M178.446 28.5188H188.846V46.8H178.446V28.5188Z" fill="white"/>
</mask>
<g mask="url(#mask4_20_932)">
<path fill-rule="evenodd" clip-rule="evenodd" d="M186.396 28.6345H181C180.762 28.6345 180.534 28.6814 180.312 28.772C180.093 28.8626 179.9 28.9939 179.731 29.1626C179.562 29.3314 179.431 29.5251 179.34 29.747C179.25 29.9658 179.203 30.1939 179.203 30.4345V44.8189C179.203 45.0564 179.25 45.2845 179.34 45.5064C179.431 45.7251 179.562 45.922 179.731 46.0876C179.9 46.2564 180.093 46.3876 180.312 46.4783C180.534 46.5689 180.762 46.6158 181 46.6158H186.396C186.634 46.6158 186.862 46.5689 187.084 46.4783C187.303 46.3876 187.496 46.2564 187.665 46.0876C187.834 45.922 187.965 45.7251 188.056 45.5064C188.146 45.2845 188.193 45.0564 188.193 44.8189V30.4345C188.193 30.1939 188.146 29.9658 188.056 29.747C187.965 29.5251 187.834 29.3314 187.665 29.1626C187.496 28.9939 187.303 28.8626 187.084 28.772C186.862 28.6814 186.634 28.6345 186.396 28.6345Z" fill="#2A9D8F"/>
</g>
<path d="M3.2625 35.9713H3.2875L6.825 41.2713H10.9625L6.7125 35.8213C8.5875 35.3588 10.1 33.6963 10.1 31.1963C10.1 28.3838 7.9625 26.4338 5.5625 26.4338H0V41.2713H3.2625V35.9713ZM5.0125 29.0088C5.975 29.0088 6.975 29.8463 6.975 31.1963C6.975 32.6088 5.975 33.3963 5.0125 33.3963H3.2625V29.0088H5.0125Z" fill="#E9C46A"/>
<path d="M27.151 38.3088H21.826V35.3213H26.9385V32.3463H21.826V29.4088H27.151V26.4338H18.5635V41.2713H27.151V38.3088Z" fill="#E9C46A"/>
<path d="M47.7705 33.8339C47.7705 36.1214 45.6955 38.2214 43.408 38.2214C41.1205 38.2214 39.0455 36.1214 39.0455 33.8339C39.0455 31.5464 41.1205 29.4714 43.408 29.4714C45.6955 29.4714 47.7705 31.5464 47.7705 33.8339ZM48.533 39.4214C50.058 38.0214 51.0455 36.0089 51.0455 33.8589C51.0455 29.7589 47.508 26.2214 43.408 26.2214C39.308 26.2214 35.7705 29.7589 35.7705 33.8589C35.7705 37.9589 39.308 41.4839 43.408 41.4839C43.9955 41.4839 44.583 41.4214 45.1455 41.2714H51.908V38.6714H50.1455L48.533 39.4214Z" fill="#E9C46A"/>
<path d="M68.4423 26.4338V35.0088C68.4423 37.0588 67.8423 38.2213 65.5923 38.2213C63.3673 38.2213 62.7298 37.0588 62.7298 35.0088V26.4338H59.4673V35.4963C59.4673 39.4338 61.7298 41.4838 65.5923 41.4838C69.4548 41.4838 71.7173 39.4338 71.7173 35.4963V26.4338H68.4423Z" fill="#E9C46A"/>
<path d="M89.1466 38.3088H83.8216V35.3213H88.9341V32.3463H83.8216V29.4088H89.1466V26.4338H80.5591V41.2713H89.1466V38.3088Z" fill="#E9C46A"/>
<path d="M104.066 38.9589C102.453 38.9589 101.066 38.1464 100.978 36.3839H97.6533C97.6783 40.0089 100.666 41.6214 103.941 41.6214C106.966 41.6214 110.091 40.3339 110.091 36.8464C110.091 31.1964 101.516 33.0964 101.516 30.4464C101.516 29.3339 102.803 28.9089 103.716 28.9089C105.353 28.9089 106.253 29.4089 106.428 30.9589H109.591C109.478 27.5714 106.728 26.2214 103.678 26.2214C100.978 26.2214 98.1408 27.6589 98.1408 30.7089C98.1408 36.1839 106.716 34.3339 106.716 37.2089C106.716 38.5464 105.091 38.9589 104.066 38.9589Z" fill="#E9C46A"/>
<path d="M124.903 29.4088H129.14V26.4338H117.403V29.4088H121.628V41.2713H124.903V29.4088Z" fill="#E9C46A"/>
<path d="M206.605 38.2588V29.4713H207.58C210.118 29.4713 211.818 31.3963 211.818 33.8588C211.818 36.3213 210.093 38.2588 207.58 38.2588H206.605ZM203.38 26.4338V41.2713H207.78C211.993 41.2713 215.155 38.0463 215.155 33.8588C215.155 29.6713 211.968 26.4338 207.78 26.4338H203.38Z" fill="#E9C46A"/>
<path d="M224.989 38.3463C224.039 38.3463 223.364 37.9963 222.964 37.2588H222.901V41.2463C223.539 41.3963 224.226 41.4838 224.989 41.4838C228.551 41.4838 230.689 39.9463 230.689 35.7088V26.4338H227.414V35.4463C227.414 36.9963 227.326 38.3463 224.989 38.3463Z" fill="#E9C46A"/>
</svg>
